<svg width="1600" height="520" viewBox="0 0 1600 520" fill="none" xmlns="http://www.w3.org/2000/svg">
  <defs>
    <linearGradient id="bg" x1="120" y1="40" x2="1450" y2="470" gradientUnits="userSpaceOnUse">
      <stop stop-color="#FAFBFF"/>
      <stop offset="0.45" stop-color="#F4F7FF"/>
      <stop offset="1" stop-color="#FFF7F2"/>
    </linearGradient>
    <linearGradient id="accentA" x1="1040" y1="80" x2="1450" y2="360" gradientUnits="userSpaceOnUse">
      <stop stop-color="#A9D6FF"/>
      <stop offset="1" stop-color="#EED3FF"/>
    </linearGradient>
    <linearGradient id="accentB" x1="980" y1="210" x2="1310" y2="440" gradientUnits="userSpaceOnUse">
      <stop stop-color="#D7F3FF"/>
      <stop offset="1" stop-color="#FFE6D7"/>
    </linearGradient>
    <filter id="blurLarge" x="814" y="0" width="706" height="500" filterUnits="userSpaceOnUse" color-interpolation-filters="sRGB">
      <feGaussianBlur stdDeviation="42"/>
    </filter>
    <filter id="shadow" x="0" y="0" width="1600" height="520" filterUnits="userSpaceOnUse" color-interpolation-filters="sRGB">
      <feDropShadow dx="0" dy="12" stdDeviation="24" flood-color="#D9E4F4" flood-opacity="0.35"/>
    </filter>
  </defs>

  <g filter="url(#shadow)">
    <rect x="28" y="24" width="1544" height="472" rx="34" fill="url(#bg)"/>
  </g>

  <rect x="84" y="86" width="152" height="34" rx="17" fill="#FFFFFF" stroke="#E6ECF5"/>
  <text x="160" y="108" text-anchor="middle" fill="#4B647C" font-size="15" font-family="-apple-system, BlinkMacSystemFont, 'Segoe UI', sans-serif" letter-spacing="0.12em">ACADEMIC AI</text>

  <text x="84" y="192" fill="#111827" font-size="64" font-weight="700" font-family="-apple-system, BlinkMacSystemFont, 'Segoe UI', sans-serif">Zhou Liu</text>
  <text x="84" y="246" fill="#41566B" font-size="28" font-family="-apple-system, BlinkMacSystemFont, 'Segoe UI', sans-serif">Research agents, multimodal systems, and post-training.</text>
  <text x="84" y="290" fill="#6B7C8F" font-size="24" font-family="-apple-system, BlinkMacSystemFont, 'Segoe UI', sans-serif">Peking University  /  ByteDance Volcano Engine  /  Beijing</text>

  <rect x="84" y="350" width="214" height="44" rx="22" fill="#FFFFFF" stroke="#DCE7F2"/>
  <text x="191" y="378" text-anchor="middle" fill="#36506A" font-size="18" font-family="-apple-system, BlinkMacSystemFont, 'Segoe UI', sans-serif">LLM Post-Training</text>

  <rect x="314" y="350" width="170" height="44" rx="22" fill="#FFFFFF" stroke="#DCE7F2"/>
  <text x="399" y="378" text-anchor="middle" fill="#36506A" font-size="18" font-family="-apple-system, BlinkMacSystemFont, 'Segoe UI', sans-serif">Agent Systems</text>

  <rect x="500" y="350" width="246" height="44" rx="22" fill="#FFFFFF" stroke="#DCE7F2"/>
  <text x="623" y="378" text-anchor="middle" fill="#36506A" font-size="18" font-family="-apple-system, BlinkMacSystemFont, 'Segoe UI', sans-serif">Scientific Intelligence</text>

  <rect x="84" y="420" width="662" height="1.5" fill="#E5EBF3"/>
  <text x="84" y="454" fill="#7A8998" font-size="18" font-family="-apple-system, BlinkMacSystemFont, 'Segoe UI', sans-serif">Light visuals, tighter narrative, and better signal than a plain bio line.</text>

  <g opacity="0.96">
    <g filter="url(#blurLarge)">
      <circle cx="1168" cy="170" r="118" fill="url(#accentA)"/>
      <circle cx="1280" cy="296" r="110" fill="url(#accentB)"/>
    </g>

    <rect x="975" y="112" width="384" height="252" rx="34" fill="#FFFFFF" stroke="#E7EDF5"/>
    <rect x="1005" y="146" width="164" height="18" rx="9" fill="#D8E5F3"/>
    <rect x="1005" y="182" width="286" height="16" rx="8" fill="#EEF3F8"/>
    <rect x="1005" y="210" width="242" height="16" rx="8" fill="#EEF3F8"/>

    <rect x="1005" y="258" width="144" height="84" rx="22" fill="#F8FBFF" stroke="#E6EEF7"/>
    <rect x="1031" y="283" width="92" height="12" rx="6" fill="#9EC5EE"/>
    <rect x="1031" y="307" width="72" height="10" rx="5" fill="#D8E6F4"/>

    <rect x="1171" y="258" width="158" height="84" rx="22" fill="#FFF9F5" stroke="#F0E7DE"/>
    <rect x="1198" y="283" width="104" height="12" rx="6" fill="#F1C7A5"/>
    <rect x="1198" y="307" width="78" height="10" rx="5" fill="#F7DED0"/>

    <circle cx="1314" cy="132" r="52" fill="url(#accentA)" opacity="0.75"/>
    <circle cx="1373" cy="218" r="24" fill="#FFFFFF" stroke="#E7EDF5"/>
    <circle cx="953" cy="324" r="14" fill="#E7F4FF"/>
  </g>
</svg>
